<svg width="270" height="116" viewBox="0 0 270 116" fill="none" xmlns="http://www.w3.org/2000/svg">
<path d="M69.9511 76.5529L67.321 69.1289H53.1907L50.5607 76.5529H42L55.7693 40H65.2066L78.8212 76.5529H69.9511ZM60.359 49.0738L55.8724 61.7049H64.7425L60.359 49.0738Z" fill="#E83C6A"/>
<path d="M94.9694 68.8711H99.7139C102.705 68.8711 105.146 67.9775 107.037 66.1902C108.962 64.403 109.925 61.7736 109.925 58.3022C109.925 54.7964 108.962 52.1499 107.037 50.3627C105.146 48.5754 102.705 47.6818 99.7139 47.6818H94.9694V68.8711ZM100.023 76.5529H86.8213V40H100.075C105.61 40 110.045 41.6498 113.38 44.9493C116.749 48.2489 118.434 52.6999 118.434 58.3022C118.434 63.9046 116.749 68.3556 113.38 71.6551C110.045 74.9203 105.593 76.5529 100.023 76.5529Z" fill="#E83C6A"/>
<path d="M167.845 76.5529H159.852V52.3218L150.311 76.5529H143.71L134.17 52.6311V76.5529H126.434V40H137.058L147.114 64.6951L156.654 40H167.845V76.5529Z" fill="#E83C6A"/>
<path d="M184.096 76.5529H175.845V40H184.096V76.5529Z" fill="#E83C6A"/>
<path d="M223.864 76.5529H215.252L200.193 52.528V76.5529H192.097V40H201.998L215.716 62.2204V40H223.864V76.5529Z" fill="#E83C6A"/>
<path d="M0 0V116H270V0H0ZM258.177 104.773H11.8227V11.2267H258.177V104.773Z" fill="#E83C6A"/>
</svg>
