<svg width="270" height="116" viewBox="0 0 270 116" fill="none" xmlns="http://www.w3.org/2000/svg">
<path d="M216.345 76.4878L213.309 68.1507H198.488L195.451 76.4878H187.938L201.936 40H210.17L224.065 76.4878H216.345ZM205.898 47.874L200.855 61.6662H210.942L205.898 47.874Z" fill="#E83C6A"/>
<path d="M173.618 76.4878L163.016 61.3574L158.487 66.3494V76.4878H151.385V40H158.487V56.5199L173.103 40H182.418L167.957 55.9023L182.521 76.4878H173.618Z" fill="#E83C6A"/>
<path d="M143.75 76.4878H136.596V61.3574H120.694V76.4878H113.592V40H120.694V54.6672H136.596V40H143.75V76.4878Z" fill="#E83C6A"/>
<path d="M105.885 76.4878H83.0352V40H105.885V46.6903H90.1372V55.0274H104.393V61.3574H90.1372V69.7975H105.885V76.4878Z" fill="#E83C6A"/>
<path d="M61.2918 67.1214L70.8126 40H78.3263L64.7913 76.4878H57.4835L44 40H51.771L61.2918 67.1214Z" fill="#E83C6A"/>
<path d="M0 0V116H270V0H0ZM258.177 104.773H11.8227V11.2267H258.177V104.773Z" fill="#E83C6A"/>
</svg>
